HIERARCHY
ROOT mixamorig:Hips
{
	OFFSET -0.000008 104.274872 1.554316
	CHANNELS 6 Xposition Yposition Zposition Xrotation Yrotation Zrotation
	JOINT mixamorig:Spine
	{
		OFFSET -0.000005 10.181595 0.131519
		CHANNELS 6 Xposition Yposition Zposition Xrotation Yrotation Zrotation
		JOINT mixamorig:Spine1
		{
			OFFSET -0.000000 9.893959 -1.470707
			CHANNELS 6 Xposition Yposition Zposition Xrotation Yrotation Zrotation
			JOINT mixamorig:Spine2
			{
				OFFSET -0.000000 9.220757 -1.370641
				CHANNELS 6 Xposition Yposition Zposition Xrotation Yrotation Zrotation
				JOINT mixamorig:Neck
				{
					OFFSET 0.000001 16.740417 -2.049036
					CHANNELS 6 Xposition Yposition Zposition Xrotation Yrotation Zrotation
					JOINT mixamorig:Head
					{
						OFFSET 0.000000 9.617874 1.685006
						CHANNELS 6 Xposition Yposition Zposition Xrotation Yrotation Zrotation
						JOINT mixamorig:HeadTop_End
						{
							OFFSET 0.000002 22.037354 7.501101
							CHANNELS 6 Xposition Yposition Zposition Xrotation Yrotation Zrotation
							End Site
							{
								OFFSET 0.000168 2310.654297 -282.823242
							}
						}
					}
				}
				JOINT mixamorig:RightShoulder
				{
					OFFSET -4.569970 11.014908 -2.160885
					CHANNELS 6 Xposition Yposition Zposition Xrotation Yrotation Zrotation
					JOINT mixamorig:RightArm
					{
						OFFSET -10.592851 -0.524811 -2.232101
						CHANNELS 6 Xposition Yposition Zposition Xrotation Yrotation Zrotation
						JOINT mixamorig:RightForeArm
						{
							OFFSET -27.841511 0.000031 -0.000004
							CHANNELS 6 Xposition Yposition Zposition Xrotation Yrotation Zrotation
							JOINT mixamorig:RightHand
							{
								OFFSET -28.328831 -0.000015 0.000015
								CHANNELS 6 Xposition Yposition Zposition Xrotation Yrotation Zrotation
								JOINT mixamorig:RightHandThumb1
								{
									OFFSET -2.464806 -1.573990 2.681852
									CHANNELS 6 Xposition Yposition Zposition Xrotation Yrotation Zrotation
									JOINT mixamorig:RightHandThumb2
									{
										OFFSET -3.215179 -1.872803 1.924282
										CHANNELS 6 Xposition Yposition Zposition Xrotation Yrotation Zrotation
										JOINT mixamorig:RightHandThumb3
										{
											OFFSET -2.654831 -1.527969 1.512609
											CHANNELS 6 Xposition Yposition Zposition Xrotation Yrotation Zrotation
											JOINT mixamorig:RightHandThumb4
											{
												OFFSET -2.018814 -1.152008 1.108052
												CHANNELS 6 Xposition Yposition Zposition Xrotation Yrotation Zrotation
												End Site
												{
													OFFSET -188.809540 -114.533607 132.431396
												}
											}
										}
									}
								}
								JOINT mixamorig:RightHandIndex1
								{
									OFFSET -9.108284 -0.517868 2.259835
									CHANNELS 6 Xposition Yposition Zposition Xrotation Yrotation Zrotation
									JOINT mixamorig:RightHandIndex2
									{
										OFFSET -3.699989 0.000000 0.001215
										CHANNELS 6 Xposition Yposition Zposition Xrotation Yrotation Zrotation
										JOINT mixamorig:RightHandIndex3
										{
											OFFSET -2.850006 0.000031 -0.000522
											CHANNELS 6 Xposition Yposition Zposition Xrotation Yrotation Zrotation
											JOINT mixamorig:RightHandIndex4
											{
												OFFSET -2.772186 -0.000015 -0.000020
												CHANNELS 6 Xposition Yposition Zposition Xrotation Yrotation Zrotation
												End Site
												{
													OFFSET -277.218445 0.000000 -0.050231
												}
											}
										}
									}
								}
								JOINT mixamorig:RightHandMiddle1
								{
									OFFSET -9.532516 -0.000031 -0.000023
									CHANNELS 6 Xposition Yposition Zposition Xrotation Yrotation Zrotation
									JOINT mixamorig:RightHandMiddle2
									{
										OFFSET -3.700005 -0.000015 0.003713
										CHANNELS 6 Xposition Yposition Zposition Xrotation Yrotation Zrotation
										JOINT mixamorig:RightHandMiddle3
										{
											OFFSET -2.949974 0.000015 -0.002054
											CHANNELS 6 Xposition Yposition Zposition Xrotation Yrotation Zrotation
											JOINT mixamorig:RightHandMiddle4
											{
												OFFSET -2.946640 0.000000 -0.000156
												CHANNELS 6 Xposition Yposition Zposition Xrotation Yrotation Zrotation
												End Site
												{
													OFFSET -294.664337 0.000000 -0.113670
												}
											}
										}
									}
								}
								JOINT mixamorig:RightHandRing1
								{
									OFFSET -9.103600 -0.043076 -1.865134
									CHANNELS 6 Xposition Yposition Zposition Xrotation Yrotation Zrotation
									JOINT mixamorig:RightHandRing2
									{
										OFFSET -3.379288 0.000000 -0.001055
										CHANNELS 6 Xposition Yposition Zposition Xrotation Yrotation Zrotation
										JOINT mixamorig:RightHandRing3
										{
											OFFSET -2.889687 -0.000015 0.000379
											CHANNELS 6 Xposition Yposition Zposition Xrotation Yrotation Zrotation
											JOINT mixamorig:RightHandRing4
											{
												OFFSET -2.638809 -0.000015 0.000941
												CHANNELS 6 Xposition Yposition Zposition Xrotation Yrotation Zrotation
												End Site
												{
													OFFSET -263.880371 0.000000 0.516020
												}
											}
										}
									}
								}
								JOINT mixamorig:RightHandPinky1
								{
									OFFSET -8.076683 -0.486710 -3.806280
									CHANNELS 6 Xposition Yposition Zposition Xrotation Yrotation Zrotation
									JOINT mixamorig:RightHandPinky2
									{
										OFFSET -3.600014 -0.000015 -0.003747
										CHANNELS 6 Xposition Yposition Zposition Xrotation Yrotation Zrotation
										JOINT mixamorig:RightHandPinky3
										{
											OFFSET -2.099983 0.000000 -0.005739
											CHANNELS 6 Xposition Yposition Zposition Xrotation Yrotation Zrotation
											JOINT mixamorig:RightHandPinky4
											{
												OFFSET -2.115768 -0.000031 -0.003680
												CHANNELS 6 Xposition Yposition Zposition Xrotation Yrotation Zrotation
												End Site
												{
													OFFSET -211.577087 0.000000 -0.350686
												}
											}
										}
									}
								}
							}
						}
					}
				}
				JOINT mixamorig:LeftShoulder
				{
					OFFSET 4.570447 11.014725 -2.160855
					CHANNELS 6 Xposition Yposition Zposition Xrotation Yrotation Zrotation
					JOINT mixamorig:LeftArm
					{
						OFFSET 10.592371 -0.524597 -2.232119
						CHANNELS 6 Xposition Yposition Zposition Xrotation Yrotation Zrotation
						JOINT mixamorig:LeftForeArm
						{
							OFFSET 27.841532 -0.000031 0.000026
							CHANNELS 6 Xposition Yposition Zposition Xrotation Yrotation Zrotation
							JOINT mixamorig:LeftHand
							{
								OFFSET 28.328846 -0.000061 0.000022
								CHANNELS 6 Xposition Yposition Zposition Xrotation Yrotation Zrotation
								JOINT mixamorig:LeftHandThumb1
								{
									OFFSET 2.466141 -1.576172 2.681732
									CHANNELS 6 Xposition Yposition Zposition Xrotation Yrotation Zrotation
									JOINT mixamorig:LeftHandThumb2
									{
										OFFSET 3.217812 -1.872070 1.916482
										CHANNELS 6 Xposition Yposition Zposition Xrotation Yrotation Zrotation
										JOINT mixamorig:LeftHandThumb3
										{
											OFFSET 2.656029 -1.528778 1.514513
											CHANNELS 6 Xposition Yposition Zposition Xrotation Yrotation Zrotation
											JOINT mixamorig:LeftHandThumb4
											{
												OFFSET 2.020889 -1.154053 1.115139
												CHANNELS 6 Xposition Yposition Zposition Xrotation Yrotation Zrotation
												End Site
												{
													OFFSET 190.885437 -115.081749 130.048782
												}
											}
										}
									}
								}
								JOINT mixamorig:LeftHandIndex1
								{
									OFFSET 9.109314 -0.518021 2.259871
									CHANNELS 6 Xposition Yposition Zposition Xrotation Yrotation Zrotation
									JOINT mixamorig:LeftHandIndex2
									{
										OFFSET 3.699989 0.000000 -0.000322
										CHANNELS 6 Xposition Yposition Zposition Xrotation Yrotation Zrotation
										JOINT mixamorig:LeftHandIndex3
										{
											OFFSET 2.850006 0.000000 0.000352
											CHANNELS 6 Xposition Yposition Zposition Xrotation Yrotation Zrotation
											JOINT mixamorig:LeftHandIndex4
											{
												OFFSET 2.774864 -0.000031 -0.000027
												CHANNELS 6 Xposition Yposition Zposition Xrotation Yrotation Zrotation
												End Site
												{
													OFFSET 277.486267 0.000000 -0.009857
												}
											}
										}
									}
								}
								JOINT mixamorig:LeftHandMiddle1
								{
									OFFSET 9.533394 0.000061 0.000044
									CHANNELS 6 Xposition Yposition Zposition Xrotation Yrotation Zrotation
									JOINT mixamorig:LeftHandMiddle2
									{
										OFFSET 3.699989 -0.000015 -0.000231
										CHANNELS 6 Xposition Yposition Zposition Xrotation Yrotation Zrotation
										JOINT mixamorig:LeftHandMiddle3
										{
											OFFSET 2.949997 -0.000015 -0.000059
											CHANNELS 6 Xposition Yposition Zposition Xrotation Yrotation Zrotation
											JOINT mixamorig:LeftHandMiddle4
											{
												OFFSET 2.952896 0.000031 0.000063
												CHANNELS 6 Xposition Yposition Zposition Xrotation Yrotation Zrotation
												End Site
												{
													OFFSET 295.289337 0.000000 0.022810
												}
											}
										}
									}
								}
								JOINT mixamorig:LeftHandRing1
								{
									OFFSET 9.104523 -0.042999 -1.865074
									CHANNELS 6 Xposition Yposition Zposition Xrotation Yrotation Zrotation
									JOINT mixamorig:LeftHandRing2
									{
										OFFSET 3.150009 -0.000031 0.000043
										CHANNELS 6 Xposition Yposition Zposition Xrotation Yrotation Zrotation
										JOINT mixamorig:LeftHandRing3
										{
											OFFSET 2.949982 -0.000015 0.000040
											CHANNELS 6 Xposition Yposition Zposition Xrotation Yrotation Zrotation
											JOINT mixamorig:LeftHandRing4
											{
												OFFSET 2.644348 0.000000 0.000057
												CHANNELS 6 Xposition Yposition Zposition Xrotation Yrotation Zrotation
												End Site
												{
													OFFSET 264.434631 0.000000 0.012105
												}
											}
										}
									}
								}
								JOINT mixamorig:LeftHandPinky1
								{
									OFFSET 8.077789 -0.486847 -3.806259
									CHANNELS 6 Xposition Yposition Zposition Xrotation Yrotation Zrotation
									JOINT mixamorig:LeftHandPinky2
									{
										OFFSET 3.599953 0.000031 0.014727
										CHANNELS 6 Xposition Yposition Zposition Xrotation Yrotation Zrotation
										JOINT mixamorig:LeftHandPinky3
										{
											OFFSET 2.100021 0.000015 0.007705
											CHANNELS 6 Xposition Yposition Zposition Xrotation Yrotation Zrotation
											JOINT mixamorig:LeftHandPinky4
											{
												OFFSET 2.125504 0.000031 0.007517
												CHANNELS 6 Xposition Yposition Zposition Xrotation Yrotation Zrotation
												End Site
												{
													OFFSET 212.550781 0.000000 0.625752
												}
											}
										}
									}
								}
							}
						}
					}
				}
			}
		}
	}
	JOINT mixamorig:RightUpLeg
	{
		OFFSET -8.207787 -6.751648 -1.599560
		CHANNELS 6 Xposition Yposition Zposition Xrotation Yrotation Zrotation
		JOINT mixamorig:RightLeg
		{
			OFFSET -0.000002 -44.370117 0.345942
			CHANNELS 6 Xposition Yposition Zposition Xrotation Yrotation Zrotation
			JOINT mixamorig:RightFoot
			{
				OFFSET 0.000003 -44.423679 -3.043532
				CHANNELS 6 Xposition Yposition Zposition Xrotation Yrotation Zrotation
				JOINT mixamorig:RightToeBase
				{
					OFFSET -0.000002 -8.728671 10.710558
					CHANNELS 6 Xposition Yposition Zposition Xrotation Yrotation Zrotation
					JOINT mixamorig:RightToe_End
					{
						OFFSET -0.000001 -0.000679 9.278119
						CHANNELS 6 Xposition Yposition Zposition Xrotation Yrotation Zrotation
						End Site
						{
							OFFSET 0.000000 -0.067690 927.812134
						}
					}
				}
			}
		}
	}
	JOINT mixamorig:LeftUpLeg
	{
		OFFSET 8.207793 -6.751686 -1.599556
		CHANNELS 6 Xposition Yposition Zposition Xrotation Yrotation Zrotation
		JOINT mixamorig:LeftLeg
		{
			OFFSET -0.000004 -44.370014 0.346954
			CHANNELS 6 Xposition Yposition Zposition Xrotation Yrotation Zrotation
			JOINT mixamorig:LeftFoot
			{
				OFFSET -0.000001 -44.423672 -3.044401
				CHANNELS 6 Xposition Yposition Zposition Xrotation Yrotation Zrotation
				JOINT mixamorig:LeftToeBase
				{
					OFFSET -0.000002 -8.728669 10.710558
					CHANNELS 6 Xposition Yposition Zposition Xrotation Yrotation Zrotation
					JOINT mixamorig:LeftToe_End
					{
						OFFSET -0.000003 -0.000679 9.278133
						CHANNELS 6 Xposition Yposition Zposition Xrotation Yrotation Zrotation
						End Site
						{
							OFFSET 0.000000 -0.068021 927.813477
						}
					}
				}
			}
		}
	}
}
MOTION
Frames: 3
Frame Time: 0.033333
0.000006 104.270477 1.554256 0.000010 0.000003 -0.000113 -0.000005 10.181587 0.131522 0.000001 -0.000003 0.000084 -0.000000 9.893967 -1.470711 0.000001 0.000000 -0.000000 -0.000000 9.220802 -1.370642 0.000000 -0.000000 -0.000000 0.000001 16.740433 -2.049030 0.000000 -0.000000 -0.000000 0.000000 9.617859 1.685014 0.000000 0.000000 0.000000 0.000002 22.037384 7.501101 0.000000 -0.000000 0.000000 -4.569968 11.014880 -2.160881 0.000008 0.000001 -0.000038 -10.592876 -0.524724 -2.231952 74.750041 20.546486 -15.764966 -27.841532 0.000019 0.000542 -56.601358 113.150635 78.418645 -28.328814 0.000021 0.000027 -0.000319 -0.000045 0.000007 -2.464445 -1.573702 2.682308 -53.124556 -175.703816 -26.865917 -3.215292 -1.872615 1.924662 155.656883 30.510284 -3.393605 -2.654963 -1.527885 1.513094 146.697041 26.510558 -42.155272 -2.018819 -1.152015 1.108076 -0.000001 -0.000003 0.000002 -9.108369 -0.517546 2.260111 95.716290 16.462945 -18.217154 -3.700075 0.000316 0.001489 92.797976 15.238970 -15.967072 -2.850096 0.000350 -0.000265 93.311012 12.293757 -13.018429 -2.772165 -0.000018 -0.000018 0.000003 0.000000 0.000000 -9.532575 0.000268 0.000231 90.608798 14.700452 -14.997682 -3.700084 0.000322 0.003951 90.628865 12.916467 -12.961232 -2.950063 0.000325 -0.001813 92.730692 11.786967 -12.350747 -2.946617 0.000014 -0.000157 -0.000003 0.000000 -0.000000 -9.103685 -0.042740 -1.864893 89.023005 15.695882 -15.390388 -3.379333 0.000319 -0.000826 88.509676 10.140104 -9.898044 -2.889765 0.000345 0.000633 93.315301 7.451197 -7.942530 -2.638811 -0.000028 0.000936 0.000000 -0.000001 -0.000002 -8.076735 -0.486389 -3.806045 80.457463 16.462643 -13.825611 -3.600029 0.000283 -0.003543 83.514629 7.338514 -6.240515 -2.099988 0.000310 -0.005525 86.035242 3.961444 -3.496792 -2.115771 -0.000044 -0.003690 0.000004 -0.000002 -0.000002 4.570446 11.014691 -2.160851 -0.000018 0.000010 -0.000021 10.592384 -0.524486 -2.232325 73.241928 -6.346293 4.719031 27.841831 0.000084 -0.000206 101.003506 -67.134230 77.670138 28.328838 -0.000029 0.000020 0.000022 -0.000089 0.000000 2.465935 -1.576098 2.681911 -49.099334 173.228815 13.810622 3.217830 -1.871770 1.916376 156.748320 -28.638158 14.182802 2.656108 -1.528641 1.514437 139.998510 -27.934113 43.162356 2.020887 -1.154083 1.115148 -0.000005 0.000002 0.000004 9.109378 -0.517853 2.259724 81.972392 -14.010219 12.177240 3.700040 0.000134 -0.000473 79.006581 -13.800787 11.409612 2.850043 0.000171 0.000217 76.303820 -12.334593 9.702925 2.774869 -0.000048 -0.000034 0.000001 0.000001 0.000001 9.533465 0.000218 -0.000094 82.616199 -12.823964 11.272483 3.700035 0.000169 -0.000363 83.271802 -13.413340 11.932952 2.950057 0.000153 -0.000192 82.323088 -16.527191 14.475157 2.952859 -0.000030 0.000064 -0.000001 0.000001 -0.000001 9.104583 -0.042860 -1.865217 79.781179 -12.855639 10.760569 3.150048 0.000183 -0.000105 85.715309 -13.422171 12.463806 2.950032 0.000147 -0.000058 86.750485 -15.102574 14.280009 2.644334 0.000033 0.000057 0.000001 0.000000 -0.000000 8.077834 -0.486755 -3.806392 67.066577 -15.702673 10.839424 3.599997 0.000147 0.014555 70.084305 -13.859010 10.109452 2.100047 0.000156 0.007542 73.005160 -13.276450 10.211563 2.125497 -0.000031 0.007514 -0.000002 -0.000000 -0.000000 -8.207786 -6.751667 -1.599560 -0.077001 -0.000003 0.000080 -0.000002 -44.370110 0.345938 0.153719 -0.000000 -0.000000 0.000000 -44.423679 -3.043532 -0.076700 0.000000 -0.000002 -0.000006 -8.728667 10.710559 -0.000009 -0.000000 -0.000000 -0.000001 -0.000679 9.278123 0.000000 -0.000000 -0.000000 8.207792 -6.751710 -1.599556 -0.074518 -0.000003 0.000081 -0.000002 -44.370014 0.346960 0.148822 0.000002 0.000000 -0.000001 -44.423664 -3.044403 -0.074314 0.000000 -0.000002 -0.000004 -8.728671 10.710558 0.000007 -0.000000 -0.000000 0.000000 -0.000680 9.278137 -0.000000 0.000000 -0.000001 
0.000006 104.270477 1.554256 0.000010 0.000003 -0.000113 -0.000005 10.181587 0.131522 0.000001 -0.000003 0.000084 -0.000000 9.893967 -1.470711 0.000001 0.000000 -0.000000 -0.000000 9.220802 -1.370642 0.000000 -0.000000 -0.000000 0.000001 16.740433 -2.049030 0.000000 -0.000000 -0.000000 0.000000 9.617859 1.685014 0.000000 0.000000 0.000000 0.000002 22.037384 7.501101 0.000000 -0.000000 0.000000 -4.569968 11.014880 -2.160881 0.000008 0.000001 -0.000038 -10.592880 -0.524724 -2.231939 76.318171 21.182995 -16.717510 -27.841528 0.000014 0.000528 -56.060786 110.725733 75.240975 -28.328842 0.000007 0.000021 -0.000318 -0.000044 0.000006 -2.464499 -1.573652 2.682237 -56.798689 -181.802779 -44.310774 -3.215268 -1.872550 1.924638 151.155884 31.509111 6.321934 -2.654967 -1.527885 1.513075 144.482243 27.428286 -37.055197 -2.018819 -1.152025 1.108071 -0.000003 -0.000002 0.000005 -9.108376 -0.517547 2.260108 96.006157 14.541348 -16.182216 -3.700063 0.000320 0.001496 94.691441 13.461871 -14.574410 -2.850089 0.000367 -0.000260 94.980795 11.532301 -12.571995 -2.772151 -0.000015 -0.000021 0.000001 0.000000 0.000001 -9.532589 0.000267 0.000223 90.215673 14.667538 -14.863190 -3.700079 0.000333 0.003957 89.429750 12.715083 -12.495768 -2.950050 0.000336 -0.001826 91.502221 11.820109 -12.124533 -2.946616 0.000000 -0.000158 0.000003 -0.000000 -0.000000 -9.103687 -0.042761 -1.864897 87.222615 17.199820 -16.354316 -3.379318 0.000321 -0.000833 87.422016 10.001263 -9.579841 -2.889761 0.000349 0.000625 93.602121 7.104394 -7.612977 -2.638816 -0.000015 0.000938 -0.000001 0.000001 -0.000000 -8.076763 -0.486390 -3.806044 79.460119 18.720094 -15.472561 -3.600043 0.000265 -0.003552 79.435995 8.511875 -6.778806 -2.100019 0.000319 -0.005530 83.280456 4.268938 -3.604526 -2.115772 -0.000042 -0.003681 -0.000001 -0.000001 -0.000005 4.570446 11.014691 -2.160851 -0.000018 0.000010 -0.000021 10.592371 -0.524510 -2.232301 72.600751 0.052068 -0.038165 27.841827 0.000072 -0.000208 102.738196 -69.140762 81.539611 28.328846 -0.000028 0.000027 0.000018 -0.000089 0.000000 2.465952 -1.576130 2.681915 -46.093398 175.034662 3.675087 3.217855 -1.871865 1.916425 157.407980 -22.310290 46.047790 2.656110 -1.528676 1.514466 139.674486 -27.529976 55.302232 2.020895 -1.154094 1.115150 0.000006 0.000000 0.000001 9.109383 -0.517879 2.259724 82.184886 -18.371134 16.043588 3.700041 0.000140 -0.000477 80.644248 -12.459220 10.600454 2.850049 0.000189 0.000205 79.486053 -9.609429 7.994836 2.774886 -0.000016 -0.000020 0.000001 0.000001 0.000000 9.533478 0.000198 -0.000082 82.375292 -17.493429 15.327587 3.700041 0.000173 -0.000374 84.743441 -10.509029 9.588672 2.950033 0.000174 -0.000204 85.348855 -10.211471 9.420815 2.952874 -0.000014 0.000059 0.000000 0.000000 -0.000000 9.104599 -0.042861 -1.865227 82.607306 -16.755169 14.747292 3.150060 0.000188 -0.000109 87.208914 -11.993548 11.428680 2.950010 0.000194 -0.000096 88.775111 -10.207981 9.994849 2.644336 0.000030 0.000055 0.000000 -0.000002 0.000002 8.077860 -0.486736 -3.806402 76.385503 -18.750430 15.279729 3.599987 0.000155 0.014569 75.812641 -16.557772 13.343653 2.100036 0.000168 0.007548 76.709035 -12.157273 10.018691 2.125504 -0.000001 0.007516 -0.000003 -0.000000 -0.000000 -8.207786 -6.751667 -1.599560 -0.077001 -0.000003 0.000080 -0.000002 -44.370110 0.345938 0.153719 -0.000000 -0.000000 0.000000 -44.423679 -3.043532 -0.076700 0.000000 -0.000002 -0.000006 -8.728667 10.710559 -0.000009 -0.000000 -0.000000 -0.000001 -0.000679 9.278123 0.000000 -0.000000 -0.000000 8.207792 -6.751710 -1.599556 -0.074518 -0.000003 0.000081 -0.000002 -44.370014 0.346960 0.148822 0.000002 0.000000 -0.000001 -44.423664 -3.044403 -0.074314 0.000000 -0.000002 -0.000004 -8.728671 10.710558 0.000007 -0.000000 -0.000000 0.000000 -0.000680 9.278137 -0.000000 0.000000 -0.000001 
0.000006 104.270477 1.554256 0.000010 0.000003 -0.000113 -0.000005 10.181587 0.131522 0.000001 -0.000003 0.000084 -0.000000 9.893967 -1.470711 0.000001 0.000000 -0.000000 -0.000000 9.220802 -1.370642 0.000000 -0.000000 -0.000000 0.000001 16.740433 -2.049030 0.000000 -0.000000 -0.000000 0.000000 9.617859 1.685014 0.000000 0.000000 0.000000 0.000002 22.037384 7.501101 0.000000 -0.000000 0.000000 -4.569968 11.014880 -2.160881 0.000008 0.000001 -0.000038 -10.592876 -0.524769 -2.231907 77.093527 29.094755 -23.363927 -27.841518 0.000011 0.000542 -55.110822 108.084745 71.455602 -28.328831 0.000008 0.000031 -0.000326 -0.000046 0.000008 -2.464468 -1.573658 2.682268 -55.765353 -177.352337 -36.827451 -3.215272 -1.872588 1.924646 151.496451 31.383404 5.063249 -2.654946 -1.527874 1.513081 143.724802 27.530473 -37.738643 -2.018831 -1.151984 1.108065 -0.000004 -0.000001 0.000004 -9.108377 -0.517538 2.260100 95.907276 14.774049 -16.411715 -3.700081 0.000307 0.001500 94.326237 13.346541 -14.358424 -2.850096 0.000370 -0.000268 94.388870 11.379728 -12.278908 -2.772143 -0.000001 -0.000019 0.000002 0.000001 0.000001 -9.532576 0.000270 0.000219 90.544355 14.689466 -14.969919 -3.700077 0.000325 0.003951 89.610094 12.373767 -12.196152 -2.950060 0.000337 -0.001836 91.666780 11.592665 -11.925165 -2.946615 0.000014 -0.000154 -0.000005 -0.000000 -0.000001 -9.103691 -0.042751 -1.864894 87.816603 17.136531 -16.461574 -3.379337 0.000314 -0.000840 87.823337 9.866971 -9.517535 -2.889748 0.000343 0.000623 93.782677 7.110437 -7.643444 -2.638808 -0.000026 0.000938 0.000000 0.000001 -0.000007 -8.076753 -0.486399 -3.806041 79.796308 19.233420 -15.996125 -3.600038 0.000271 -0.003572 79.188776 8.798956 -6.985859 -2.100008 0.000302 -0.005539 82.907944 4.489595 -3.775335 -2.115762 -0.000054 -0.003680 0.000001 -0.000001 -0.000005 4.570446 11.014691 -2.160851 -0.000018 0.000010 -0.000021 10.592407 -0.524483 -2.232352 69.732407 -16.116928 11.267481 27.841835 0.000053 -0.000180 108.696689 -73.624180 92.433613 28.328838 -0.000027 0.000017 0.000024 -0.000088 0.000000 2.466067 -1.576174 2.681899 -30.268431 161.179870 -31.034665 3.217864 -1.871873 1.916425 155.860969 -23.169861 43.982573 2.656116 -1.528643 1.514473 141.498980 -27.156887 50.609263 2.020890 -1.154070 1.115143 0.000004 0.000003 0.000006 9.109397 -0.517872 2.259727 84.336403 -18.579863 16.843303 3.700040 0.000156 -0.000479 82.935292 -13.060594 11.567846 2.850056 0.000202 0.000203 81.909302 -10.537323 9.150579 2.774902 -0.000031 -0.000028 -0.000000 -0.000002 0.000000 9.533491 0.000193 -0.000090 84.301221 -17.620498 15.964114 3.700034 0.000169 -0.000360 86.548004 -12.082505 11.377899 2.950043 0.000181 -0.000209 86.531462 -11.259478 10.604310 2.952866 -0.000015 0.000066 0.000001 0.000001 -0.000000 9.104597 -0.042850 -1.865229 86.516681 -16.402021 15.447870 3.150054 0.000192 -0.000104 88.121673 -12.677179 12.273194 2.950029 0.000184 -0.000096 88.037573 -10.514122 10.163596 2.644318 0.000031 0.000052 0.000002 0.000000 -0.000000 8.077854 -0.486713 -3.806411 81.778640 -18.424939 16.509132 3.600016 0.000188 0.014573 81.752973 -16.362509 14.643495 2.100032 0.000188 0.007554 81.889529 -12.121528 10.946595 2.125498 0.000002 0.007515 0.000001 0.000002 -0.000001 -8.207786 -6.751667 -1.599560 -0.077001 -0.000003 0.000080 -0.000002 -44.370110 0.345938 0.153719 -0.000000 -0.000000 0.000000 -44.423679 -3.043532 -0.076700 0.000000 -0.000002 -0.000006 -8.728667 10.710559 -0.000009 -0.000000 -0.000000 -0.000001 -0.000679 9.278123 0.000000 -0.000000 -0.000000 8.207792 -6.751710 -1.599556 -0.074518 -0.000003 0.000081 -0.000002 -44.370014 0.346960 0.148822 0.000002 0.000000 -0.000001 -44.423664 -3.044403 -0.074314 0.000000 -0.000002 -0.000004 -8.728671 10.710558 0.000007 -0.000000 -0.000000 0.000000 -0.000680 9.278137 -0.000000 0.000000 -0.000001 
